<svg xmlns="http://www.w3.org/2000/svg" viewBox="0 13.699999809265137 354.79998779296875 47.54999923706055" data-asc="1.025"><g fill="#ff0000"><g fill="#ff0000" transform="translate(0, 0)"><path d="M18.80 46.30L18.35 46.30Q17.90 47.40 17.25 48.40Q16.60 49.40 15.65 50.17Q14.70 50.95 13.43 51.40Q12.15 51.85 10.55 51.85Q8 51.85 6.03 50.65Q4.05 49.45 2.70 47.15Q1.35 44.85 0.68 41.55Q0 38.25 0 34.10Q0 25.20 3.25 20.47Q6.50 15.75 13.30 15.75Q16 15.75 18.05 16.47Q20.10 17.20 21.58 18.52Q23.05 19.85 24 21.70Q24.95 23.55 25.50 25.80L18.50 27.50Q18.20 26.40 17.83 25.37Q17.45 24.35 16.85 23.55Q16.25 22.75 15.35 22.27Q14.45 21.80 13.15 21.80Q10.30 21.80 9.13 24.15Q7.95 26.50 7.95 30.75L7.95 36.45Q7.95 40.70 9.23 43.25Q10.50 45.80 13.75 45.80Q16.30 45.80 17.55 44.30Q18.80 42.80 18.80 40.45L18.80 37.90L12.85 37.90L12.85 32.60L25.50 32.60L25.50 51.25L18.80 51.25L18.80 46.30ZM31.95 45.50L37.90 45.50L37.90 31.20L31.95 31.20L31.95 25.45L45.30 25.45L45.30 32.75L45.65 32.75Q46 31.35 46.63 30.02Q47.25 28.70 48.23 27.67Q49.20 26.65 50.60 26.05Q52 25.45 53.90 25.45L56.35 25.45L56.35 32.25L50.85 32.25Q48.10 32.25 46.70 33.87Q45.30 35.50 45.30 37.85L45.30 45.50L53.80 45.50L53.80 51.25L31.95 51.25L31.95 45.50ZM73.25 51.85Q70.25 51.85 67.85 50.92Q65.45 50.00 63.77 48.25Q62.10 46.50 61.20 44.00Q60.30 41.50 60.30 38.35Q60.30 35.20 61.20 32.70Q62.10 30.20 63.77 28.45Q65.45 26.70 67.85 25.77Q70.25 24.85 73.25 24.85Q76.25 24.85 78.65 25.77Q81.05 26.70 82.72 28.45Q84.40 30.20 85.30 32.70Q86.20 35.20 86.20 38.35Q86.20 41.50 85.30 44.00Q84.40 46.50 82.72 48.25Q81.05 50.00 78.65 50.92Q76.25 51.85 73.25 51.85M73.25 46.35Q75.75 46.35 77.15 44.80Q78.55 43.25 78.55 40.40L78.55 36.30Q78.55 33.45 77.15 31.90Q75.75 30.35 73.25 30.35Q70.75 30.35 69.35 31.90Q67.95 33.45 67.95 36.30L67.95 40.40Q67.95 43.25 69.35 44.80Q70.75 46.35 73.25 46.35ZM104.30 51.85Q101.25 51.85 98.83 50.92Q96.40 50.00 94.72 48.25Q93.05 46.50 92.15 44.00Q91.25 41.50 91.25 38.35Q91.25 35.20 92.15 32.70Q93.05 30.20 94.72 28.45Q96.40 26.70 98.83 25.77Q101.25 24.85 104.25 24.85Q108.50 24.85 111.08 26.57Q113.65 28.30 115 31.15L109.30 34.25Q108.60 32.75 107.47 31.75Q106.35 30.75 104.25 30.75Q101.70 30.75 100.33 32.22Q98.95 33.70 98.95 36.25L98.95 40.45Q98.95 43.00 100.33 44.47Q101.70 45.95 104.35 45.95Q106.50 45.95 107.72 44.95Q108.95 43.95 109.80 42.35L115.40 45.55Q114 48.40 111.33 50.12Q108.65 51.85 104.30 51.85ZM133.95 51.85Q127.45 51.85 124.10 48.25Q120.75 44.65 120.75 38.45Q120.75 35.30 121.63 32.77Q122.50 30.25 124.13 28.47Q125.75 26.70 128.07 25.77Q130.40 24.85 133.30 24.85Q136.20 24.85 138.50 25.77Q140.80 26.70 142.40 28.40Q144 30.10 144.88 32.52Q145.75 34.95 145.75 37.95L145.75 40.15L128.10 40.15L128.10 40.60Q128.10 43.10 129.65 44.62Q131.20 46.15 134.20 46.15Q136.50 46.15 138.15 45.27Q139.80 44.40 141 42.95L145 47.30Q143.50 49.15 140.80 50.50Q138.10 51.85 133.95 51.85M133.35 30.15Q130.95 30.15 129.53 31.62Q128.10 33.10 128.10 35.60L128.10 36.00L138.50 36.00L138.50 35.60Q138.50 33.05 137.13 31.60Q135.75 30.15 133.35 30.15ZM151.95 45.50L157.90 45.50L157.90 31.20L151.95 31.20L151.95 25.45L165.30 25.45L165.30 32.75L165.65 32.75Q166 31.35 166.63 30.02Q167.25 28.70 168.22 27.67Q169.20 26.65 170.60 26.05Q172 25.45 173.90 25.45L176.35 25.45L176.35 32.25L170.85 32.25Q168.10 32.25 166.70 33.87Q165.30 35.50 165.30 37.85L165.30 45.50L173.80 45.50L173.80 51.25L151.95 51.25L151.95 45.50ZM199.75 25.45L207.30 25.45L195.15 55.40Q194 58.25 192.10 59.75Q190.20 61.25 186.90 61.25L181.80 61.25L181.80 55.50L188 55.50L189.60 51.10L179.20 25.45L187.15 25.45L190.90 36.30L193.25 43.80L193.65 43.80L195.90 36.30L199.75 25.45ZM242.85 51.25L242.85 16.35L250.40 16.35L250.40 45.10L265.40 45.10L265.40 51.25L242.85 51.25ZM284.85 22.15Q282.35 22.15 281.38 21.12Q280.40 20.10 280.40 18.65L280.40 17.20Q280.40 15.70 281.38 14.70Q282.35 13.70 284.85 13.70Q287.35 13.70 288.32 14.70Q289.30 15.70 289.30 17.20L289.30 18.65Q289.30 20.10 288.32 21.12Q287.35 22.15 284.85 22.15M272.95 45.50L281.15 45.50L281.15 31.20L272.95 31.20L272.95 25.45L288.55 25.45L288.55 45.50L296.15 45.50L296.15 51.25L272.95 51.25L272.95 45.50ZM312.95 51.85Q308.65 51.85 305.48 50.55Q302.30 49.25 300.70 47.00L304.85 43.15Q306.35 44.80 308.38 45.72Q310.40 46.65 313 46.65Q315.20 46.65 316.45 45.97Q317.70 45.30 317.70 43.90Q317.70 42.80 316.85 42.37Q316 41.95 314.50 41.70L310.35 41.05Q308.60 40.80 307.10 40.27Q305.60 39.75 304.50 38.85Q303.40 37.95 302.75 36.65Q302.10 35.35 302.10 33.50Q302.10 29.45 305.20 27.15Q308.30 24.85 313.90 24.85Q317.70 24.85 320.38 25.87Q323.05 26.90 324.65 28.80L320.95 33.00Q319.80 31.75 318 30.90Q316.20 30.05 313.65 30.05Q309.35 30.05 309.35 32.65Q309.35 33.80 310.20 34.22Q311.05 34.65 312.55 34.90L316.65 35.55Q318.40 35.80 319.90 36.32Q321.40 36.85 322.52 37.75Q323.65 38.65 324.30 39.95Q324.95 41.25 324.95 43.10Q324.95 47.15 321.82 49.50Q318.70 51.85 312.95 51.85ZM345.25 51.25Q341.25 51.25 339.30 49.15Q337.35 47.05 337.35 43.80L337.35 31.20L330.35 31.20L330.35 25.45L334.90 25.45Q336.55 25.45 337.25 24.80Q337.95 24.15 337.95 22.40L337.95 16.35L344.75 16.35L344.75 25.45L354.80 25.45L354.80 31.20L344.75 31.20L344.75 45.50L354.80 45.50L354.80 51.25L345.25 51.25Z"/></g><g fill="#ff0000" transform="translate(0, 63.75)"><path d=""/></g></g></svg>